<?xml version="1.0" encoding="iso-8859-1"?>
<!-- Generator: Adobe Illustrator 19.0.0, SVG Export Plug-In . SVG Version: 6.00 Build 0)  -->
<svg xmlns="http://www.w3.org/2000/svg" xmlns:xlink="http://www.w3.org/1999/xlink" version="1.1" id="Layer_1" x="0px" y="0px" viewBox="0 0 260.204 260.204" style="enable-background:new 0 0 260.204 260.204;" xml:space="preserve" width="512px" height="512px">
<g>
	<g>
		<g>
			<path d="M102.278,204.664c0-3.52-2.864-6.384-6.384-6.384s-6.384,2.864-6.384,6.384c0,3.52,2.864,6.384,6.384,6.384     S102.278,208.184,102.278,204.664z M91.778,204.664c0-2.268,1.848-4.116,4.116-4.116s4.116,1.844,4.116,4.116     c0,2.272-1.848,4.116-4.116,4.116S91.778,206.936,91.778,204.664z" fill="#d03c98"/>
			<path d="M167.798,70.14c0.696-2.468,1.936-4.792,3.752-6.828c0.928-1.036,1.984-2,3.036-2.968     c1.316-1.212,2.68-2.468,3.844-3.872c2.848-3.432,3.696-7.108,2.392-10.352c-1.708-4.24-6.836-7.496-15.248-9.676l-5.252-0.896     c-8.636-0.736-14.572,0.624-17.596,4.056c-2.304,2.624-2.728,6.372-1.188,10.556c0.632,1.708,1.496,3.34,2.336,4.916     c0.672,1.264,1.344,2.528,1.876,3.82c1.044,2.524,1.44,5.128,1.276,7.688c0,0-1.408,12.024-1.488,12.488l-1.756,14.968     c-0.112,0.68-0.18,1.548,0.36,2.236c0.06,0.076,0.132,0.116,0.196,0.18l-22.212,102.136c-0.56,3.272,0.244,6.58,2.252,9.316     c1.996,2.712,4.94,4.516,8.288,5.088c0.752,0.128,1.496,0.192,2.244,0.192c2.584,0,5.104-0.764,7.268-2.236     c2.804-1.908,4.66-4.76,5.236-8.12l12.992-103.536c0.004-0.004,0.008,0,0.012-0.004c0.748-0.432,0.94-1.248,1.048-1.88     l3.612-15.068C165.118,82.028,167.798,70.14,167.798,70.14z M145.254,48.784c-0.72-1.948-1.224-4.668,0.44-6.564     c2.084-2.364,7.156-3.332,14.28-2.724l4.596,0.784c6.92,1.796,11.384,4.396,12.564,7.32c0.94,2.34-0.44,4.736-1.764,6.336     c-0.996,1.2-2.2,2.308-3.476,3.484c-1.148,1.056-2.288,2.112-3.304,3.244c-2.74,3.064-4.492,6.664-5.136,10.508l-1.844-0.316     c0.132-0.128,6.164-20.18,6.164-20.18c0.18-0.6-0.164-1.232-0.764-1.412c-0.584-0.172-1.228,0.168-1.408,0.764     c0,0-5.876,20.28-5.764,20.52l-1.896-0.324c0.148-0.156,4.296-23.8,4.296-23.8c0.104-0.616-0.308-1.204-0.924-1.308     c-0.644-0.116-1.204,0.312-1.308,0.924c0,0-3.924,23.68-3.832,23.88l-1.96-0.336c0.18-0.184,1.796-21.176,1.796-21.176     c0.044-0.624-0.424-1.168-1.052-1.212c-0.616-0.044-1.168,0.424-1.216,1.052c0,0-1.364,20.864-1.272,21.04l-1.708-0.292     c0.672-3.84,0.216-7.816-1.352-11.62c-0.584-1.408-1.308-2.788-2.044-4.168C146.558,51.684,145.79,50.24,145.254,48.784z      M148.174,80.78c0.368,0.252,0.788,0.408,1.224,0.564l-1.524,1.996L148.174,80.78z M147.47,86.792     c0.104-0.06,3.948-4.924,3.948-4.924l2.912,0.5l-7.432,9.304L147.47,86.792z M156.502,82.74l2.64,0.452     c0,0-9.276,11.412-9.276,11.624l-2.152-0.368c-0.196-0.032-0.34-0.04-0.516-0.06L156.502,82.74z M143.474,202.244     c-0.376,2.2-1.632,4.124-3.54,5.42c-1.932,1.312-4.3,1.804-6.608,1.416c-2.336-0.4-4.384-1.656-5.764-3.532     c-1.368-1.856-1.916-4.092-1.556-6.204L148.174,97.4l8.276,1.416L143.474,202.244z M158.778,96.4     c-0.26-0.08-0.56-0.156-0.908-0.216l-1.488-0.256l3.516-4.208L158.778,96.4z M160.854,87.756     c-0.084,0.052-6.384,7.632-6.388,7.848l-2.688-0.46l9.832-11.916c0.112-0.02,0.228-0.02,0.336-0.048L160.854,87.756z      M162.774,78.956c-0.084,0.484-0.384,0.908-0.844,1.2c-0.512,0.324-1.136,0.436-1.78,0.332l-9.372-1.604     c-1.244-0.212-2.14-1.276-1.94-2.572l-0.032-3.624l15.28,2.616L162.774,78.956z" fill="#d03c98"/>
			<path d="M136.306,191.656c-1.58-0.264-3.188,0.072-4.504,0.964c-1.328,0.904-2.208,2.256-2.472,3.816     c-0.548,3.2,1.692,6.264,4.988,6.828c0.356,0.06,0.712,0.092,1.068,0.092c1.228,0,2.416-0.364,3.436-1.056     c1.328-0.904,2.208-2.256,2.472-3.816c0.268-1.556-0.108-3.128-1.064-4.42C139.29,192.784,137.898,191.928,136.306,191.656z      M139.062,198.096c-0.16,0.952-0.7,1.776-1.512,2.328c-0.828,0.564-1.848,0.78-2.848,0.604c-2.068-0.356-3.472-2.244-3.136-4.212     c0.16-0.948,0.7-1.772,1.512-2.324c0.64-0.436,1.392-0.664,2.168-0.664c0.228,0,0.452,0.02,0.68,0.06     c1.008,0.172,1.892,0.712,2.484,1.516C138.994,196.196,139.226,197.152,139.062,198.096z" fill="#d03c98"/>
			<path d="M209.33,68.364c-1.484-4.74-4.192-7.668-7.62-8.256c-3.416-0.592-6.956,1.276-9.932,5.248     c-2.692,3.592-4.688,8.592-5.628,14.08c-0.932,5.448-0.616,10.456,0.556,14.496l-1.188,1.012c0,0,0.072,8.392,0.204,8.888     c-0.396,0.332-0.492,0.732-0.552,1.076l-1.516,12.92c-0.104,0.628-0.164,1.428,0.348,2.084c0.012,0.02,0.032,0.024,0.044,0.044     l-19.176,88.172c-0.496,2.9,0.212,5.832,1.992,8.252c1.764,2.4,4.372,4,7.332,4.504c0.664,0.112,1.324,0.168,1.98,0.168     c2.288,0,4.52-0.676,6.432-1.98c2.484-1.692,4.128-4.22,4.636-7.204l11.228-89.448c0.616-0.476,0.772-1.248,0.832-1.608     l3.124-13.024c0.052-0.312,0.088-0.692-0.156-1.116c0.264-0.376,3.124-8.328,3.124-8.328l-0.768-1.32     c2.444-3.424,4.396-8.072,5.332-13.516C210.898,78.028,210.674,72.644,209.33,68.364z M187.886,106.024     c0.34-0.028,0.8-0.02,1.316,0.008l-1.552,2.036L187.886,106.024z M187.23,111.644c0.052-0.044,4-5.264,4.02-5.42     c0.804,0.096,1.648,0.216,2.508,0.36l-6.952,8.704L187.23,111.644z M195.674,106.948c0.784,0.164,1.496,0.336,2.132,0.512     c0,0-8.728,10.732-8.76,10.872l-1.768-0.304c-0.064-0.012-0.116-0.012-0.18-0.024     C187.102,118.004,195.654,107.124,195.674,106.948z M183.318,211.288c-0.312,1.828-1.356,3.424-2.94,4.504     c-1.608,1.092-3.572,1.516-5.512,1.18c-1.948-0.332-3.652-1.38-4.808-2.944c-1.136-1.544-1.588-3.4-1.292-5.144L187.878,121     l6.632,1.136L183.318,211.288z M196.666,119.66c-0.184-0.048-0.388-0.096-0.608-0.132l-1.024-0.176l2.392-2.864L196.666,119.66z      M198.406,112.404c-0.04,0.032-0.096,0.028-0.128,0.064c0,0-5.228,6.4-5.26,6.54l-1.968-0.336l8.248-10L198.406,112.404z      M200.07,104.804c-0.02,0.136-0.088,0.256-0.156,0.376c-1.228-0.456-2.976-0.924-5.656-1.384c-2.692-0.46-4.504-0.604-5.824-0.58     c-0.032-0.184-0.056-0.38-0.016-0.66l-0.052-5.936l13.792,2.36L200.07,104.804z M206.014,82.84     c-0.984,5.76-3.132,10.212-5.48,12.984l-9.576-1.64c-1.3-3.396-1.852-8.308-0.864-14.072c0.832-4.876,2.568-9.264,4.884-12.356     c1.812-2.416,3.788-3.752,5.52-3.752c0.184,0,0.364,0.016,0.544,0.044c1.848,0.316,3.48,2.324,4.476,5.508     C206.67,73.248,206.85,77.964,206.014,82.84z" fill="#d03c98"/>
			<path d="M177.418,202.036c-2.936-0.496-5.716,1.412-6.204,4.256c-0.488,2.848,1.504,5.576,4.436,6.076     c0.316,0.056,0.628,0.08,0.936,0.08c2.568,0,4.832-1.796,5.264-4.336c0.24-1.388-0.096-2.788-0.944-3.936     C180.078,203.036,178.834,202.276,177.418,202.036z M179.63,207.728c-0.284,1.616-1.904,2.68-3.592,2.404     c-1.704-0.292-2.864-1.844-2.584-3.46c0.248-1.44,1.548-2.452,3.032-2.452c0.184,0,0.368,0.016,0.556,0.048     c0.832,0.144,1.564,0.584,2.052,1.248C179.57,206.168,179.762,206.952,179.63,207.728z" fill="#d03c98"/>
			<path d="M109.474,206.888L112.006,92.6c0.024-0.016,0.052-0.02,0.076-0.04c0.72-0.524,0.832-1.404,0.876-2.096l2.192-16.948     c0.02-0.3,4.228-24.776,7.38-30.772c1.048-1.992,2.292-3.952,3.5-5.852c1.472-2.316,2.992-4.708,4.244-7.268     c2.02-4.148,3.972-10.336,1.828-16.272c-2.356-6.516-9.048-10.972-19.344-12.884c-0.436-0.084-0.884-0.144-1.32-0.204L108.102,0     l-0.58,0.008c-0.448,0.004-0.904,0.008-1.348,0.032C95.718,0.596,88.506,4.144,85.322,10.296c-2.904,5.612-1.768,12-0.304,16.376     c0.908,2.704,2.104,5.272,3.26,7.76c0.952,2.04,1.932,4.148,2.712,6.252c2.348,6.352,3.332,31.196,3.312,31.54l-0.24,16.648     c-0.052,0.784-0.02,1.668,0.604,2.316c0.088,0.092,0.188,0.14,0.284,0.208l-4.264,39.264L78.582,81.536     c0.428-0.684,0.272-1.484,0.192-1.848l-2.032-13.244c-0.04-0.192-1.264-10.216-1.264-10.216c0.376-1.548,0.464-3.188,0.096-4.848     L72.11,35.732l-21.424-6.584c-1.004,2.196-1.268,4.56-0.76,6.84l4.444,20.08c0.36,1.62,1.152,3.04,2.16,4.3     c0,0,3.092,9.676,3.148,9.924l3.476,12.536c0.136,0.62,0.392,1.384,1.108,1.796c0.032,0.02,0.06,0.008,0.092,0.024l20.176,102.74     l-2.04,18.788c-0.384,5.916,3.148,11.152,8.344,13.308l6.312,32.156c0.636,2.872,2.4,5.32,4.964,6.888     c1.812,1.108,3.864,1.676,5.96,1.676c0.84,0,1.688-0.092,2.528-0.276c2.932-0.648,5.456-2.372,7.104-4.852     c1.664-2.504,2.232-5.468,1.584-8.384L109.474,206.888z M110.178,89.856c-0.304-0.064-0.656-0.12-1.06-0.148l-1.764-0.116     l3.564-5.496L110.178,89.856z M111.45,79.996c-0.104,0.068-5.984,9.22-5.912,9.48l-3.14-0.204l9.828-15.348     c0.004,0,0.008,0.004,0.008,0.004L111.45,79.996z M101.33,72.668c1.236,0.012,2.556,0.064,3.892,0.164     c-0.016,0.02-0.048,0.02-0.06,0.044l-8.228,13.308l0.08-5.624C97.154,80.48,101.446,72.94,101.33,72.668z M97.066,76.924     l0.056-3.98c0.528-0.144,1.416-0.216,2.436-0.256L97.066,76.924z M106.774,72.96c1.3,0.124,2.476,0.288,3.476,0.472     c0,0-9.74,15.468-9.672,15.72l-2.404-0.156c-0.272-0.016-0.476-0.008-0.708-0.008C97.466,88.988,106.934,73.252,106.774,72.96z      M112.218,71c-3.732-1.008-10.804-1.472-14.652-0.964c-0.16-0.356-0.832-6.752-0.832-6.752l17.164,1.12     C113.898,64.404,112.394,70.716,112.218,71z M94.71,39.308c-0.836-2.26-1.852-4.444-2.836-6.556     c-1.164-2.496-2.26-4.852-3.092-7.344c-1-2.984-2.32-8.68,0.064-13.292c3.16-6.108,11.28-7.784,17.54-8.12     c0.392-0.02,0.78-0.024,1.172-0.024l0.452-0.012l2.876,0.228c0.384,0.056,0.764,0.108,1.144,0.176     c6.164,1.144,14,3.864,16.336,10.328c1.764,4.88-0.284,10.356-1.664,13.188c-1.148,2.36-2.544,4.556-4.02,6.88     c-1.248,1.968-2.544,4-3.668,6.132c-3.132,5.96-4.876,12.672-5.088,19.532l-2.528-0.164l4-21.988     c0.12-0.616-0.276-1.212-0.892-1.332c-0.596-0.124-1.212,0.272-1.336,0.888l-4.34,22.32l-2.616-0.224l1.68-25.748     c0.04-0.624-0.432-1.164-1.06-1.204c-0.684-0.004-1.164,0.432-1.208,1.056l-1.68,25.752l-2.2-0.144l-0.996-22.592     c-0.028-0.624-0.444-1.12-1.184-1.084c-0.624,0.028-1.108,0.556-1.084,1.184l0.984,22.34l-2.244-0.148     C97.902,52.508,97.042,45.624,94.71,39.308z M75.894,79.612c-0.192,0.024-0.396,0.056-0.612,0.104l-1.02,0.228l1.14-3.564     L75.894,79.612z M74.762,72.228c-0.024,0.048-2.516,8.016-2.496,8.156l-1.948,0.432l3.864-12.376L74.762,72.228z M53.794,35.132     c-0.192-0.864-0.208-1.752-0.048-2.628c1.248,0.42,2.5,0.832,3.752,1.248c3.648,1.208,7.412,2.452,10.96,3.856l3.24,14.628     c0.276,1.252,0.136,2.484-0.24,3.62l-11.396,2.52c-0.864-0.892-1.548-1.932-1.82-3.168L53.794,35.132z M59.502,61.408     l13.668-3.024l0.26,6.184c0.036,0.16,0.02,0.3,0,0.436c-3.148,0.128-8.42,1.296-11.348,2.508     C61.95,67.336,59.502,61.408,59.502,61.408z M63.162,72.268L62.618,70.3c0.3-0.156,0.728-0.32,1.212-0.488L63.162,72.268z      M64.134,75.776c0.036-0.064,1.704-6.408,1.664-6.56c0.78-0.212,1.604-0.416,2.452-0.604L65.106,79.28L64.134,75.776z      M66.406,81.688c0,0,3.808-13.296,3.764-13.46c0.784-0.144,1.504-0.252,2.16-0.332c0,0-4.024,13.224-4.004,13.364l-1.74,0.384     C66.518,81.656,66.47,81.672,66.406,81.688z M68.298,84.164l6.492-1.436l14.648,59.44l-3.472,31.972L68.298,84.164z      M86.438,206.528L98.886,91.884l9.148,0.596l-2.552,115.204c-0.34,5.248-4.828,9.24-10.14,8.9     C90.098,216.24,86.106,211.692,86.438,206.528z M114.398,252.884c-1.08,1.62-2.732,2.748-4.66,3.172     c-1.928,0.42-3.904,0.1-5.564-0.912c-1.632-1-2.756-2.548-3.148-4.312l-5.948-30.296c0.004,0,0.008,0,0.012,0     c0.296,0.02,0.592,0.028,0.888,0.028c4.676,0,8.828-2.448,11.26-6.18l8.184,33.212     C115.822,249.412,115.458,251.288,114.398,252.884z" fill="#d03c98"/>
			<path d="M110.506,241.924c-1.208-0.74-2.648-0.972-4.044-0.664c-2.904,0.644-4.76,3.464-4.136,6.284     c0.54,2.428,2.748,4.084,5.204,4.084c0.396,0,0.796-0.044,1.2-0.132c2.904-0.644,4.76-3.464,4.136-6.284     C112.566,243.84,111.726,242.672,110.506,241.924z M108.238,249.284c-1.672,0.368-3.34-0.628-3.7-2.228     c-0.352-1.6,0.732-3.208,2.416-3.58c0.24-0.052,0.476-0.08,0.716-0.08c0.584,0,1.152,0.156,1.652,0.46     c0.688,0.42,1.16,1.076,1.332,1.844C111.006,247.304,109.922,248.908,108.238,249.284z" fill="#d03c98"/>
		</g>
	</g>
</g>
<g>
</g>
<g>
</g>
<g>
</g>
<g>
</g>
<g>
</g>
<g>
</g>
<g>
</g>
<g>
</g>
<g>
</g>
<g>
</g>
<g>
</g>
<g>
</g>
<g>
</g>
<g>
</g>
<g>
</g>
</svg>
